# xmcd
#
# Track frame offsets:
#  150
#  20237
#  35832
#  55267
#  68215
#  93092
#  113070
#  141852
#  158732
#  177480
#  189357
#  216405
#  239235
#  264327
#  297380
#  316092
#
# Disc length: 4506 seconds
#
# Revision: 1
# Processed by: cddbd v1.5.1PL0 Copyright (c) Steve Scherf et al.
# Submitted via: Collectorz.com_Music_Collector 6.9
#
DISCID=f3119810
DTITLE=Nick Moss and The Flip Tops - Sadie Mae
DYEAR=2005
DGENRE=Blues -  Blues Chicago
TTITLE0=Sadie Mae
TTITLE1=I Never Forget
TTITLE2=Check My Pulse
TTITLE3=Just Like That
TTITLE4=Ridin' At The Ranch
TTITLE5=One-Eyed Jack
TTITLE6=Grease Monkey
TTITLE7=The Money I Make
TTITLE8=Feel So Ashamed
TTITLE9=The Coldcut Stomp
TTITLE10=The Bishop
TTITLE11=You Got To Lose
TTITLE12=If I Could Get My Hands On You
TTITLE13=Crazy Woman Blues
TTITLE14=Everybody Got To Go
TTITLE15=Gone Hoggin'
EXTD=
EXTT0=
EXTT1=
EXTT2=
EXTT3=
EXTT4=
EXTT5=
EXTT6=
EXTT7=
EXTT8=
EXTT9=
EXTT10=
EXTT11=
EXTT12=
EXTT13=
EXTT14=
EXTT15=
PLAYORDER=
